<?xml version="1.0" encoding="utf-8"?>
<!-- Generator: Adobe Illustrator 18.1.1, SVG Export Plug-In . SVG Version: 6.00 Build 0)  -->
<svg version="1.0" id="Capa_1" xmlns="http://www.w3.org/2000/svg" xmlns:xlink="http://www.w3.org/1999/xlink" x="0px" y="0px"
	 width="841.9px" height="1190.6px" viewBox="0 0 841.9 1190.6" enable-background="new 0 0 841.9 1190.6" xml:space="preserve">
<g>
	<path id="path1202_3_" fill="#FFFF00" stroke="#000000" stroke-width="2.8346" stroke-linecap="round" stroke-linejoin="round" d="
		M206,210.7l14.5,25.3l3.6,18.1l-21.7,10.8h-10.8l-21.7,54.2l-14.5,18.1l-3.6-3.6l3.6-3.6l-7.2-3.6l-7.2-25.3l-10.8-3.6h-10.8
		l-7.2-3.6L101.1,283l3.6-10.8l14.5-10.8l14.5-79.5l10.8,10.8l25.3,18.1L206,210.7L206,210.7z"/>
	<path id="path1228_3_" fill="#FFFF00" stroke="#000000" stroke-width="2.8346" stroke-linecap="round" stroke-linejoin="round" d="
		M263.8,243.2l-3.6,10.8l-7.2,10.8l-3.6,32.5l-3.6,28.9L271,348l10.8,3.6l28.9,3.6l-3.6,7.2l-65.1,14.5h-7.2L224,391.4H206v-3.6
		l-18.1-14.5l-14.5-10.8l-18.1-25.3l14.5-18.1l21.7-54.2h10.8L224,254l-3.6-18.1L206,210.7H224l10.8,7.2l10.8-3.6l14.5,10.8
		l14.5,10.8L263.8,243.2z"/>
	<path id="path1260_3_" fill="#FFFF00" stroke="#000000" stroke-width="2.8346" stroke-linecap="round" stroke-linejoin="round" d="
		M350.5,344.4h-21.7l-10.8,7.2l-7.2,3.6l-28.9-3.6L271,348l-25.3-21.7l3.6-28.9l3.6-32.5l7.2-10.8l3.6-10.8l43.4,18.1h18.1l3.6,18.1
		l3.6,3.6l-3.6,14.5l7.2,7.2l3.6,7.2l7.2,18.1L350.5,344.4z"/>
	<path id="path1334_3_" fill="#FFFF00" stroke="#000000" stroke-width="2.8346" stroke-linecap="round" stroke-linejoin="round" d="
		M206,413.1v-21.7H224l10.8-14.5h7.2l65.1-14.5l3.6-7.2l7.2-3.6l10.8-7.2h21.7l7.2,14.5l7.2,7.2l3.6,3.6l14.5,3.6v32.5l-25.3,7.2
		l-10.8,18.1l-10.8,14.5l-3.6-3.6l-7.2-3.6H318l-18.1-7.2l-10.8-10.8l-68.7-3.6L206,413.1z"/>
	<path id="path1388_3_" fill="#FFFF00" stroke="#000000" stroke-width="2.8346" stroke-linecap="round" stroke-linejoin="round" d="
		M242.1,535.9l-3.6-7.2V507l-3.6-18.1l-18.1-14.5l-25.3-18.1L177,434.8l7.2-18.1h10.8l10.8-3.6l14.5,3.6l68.7,3.6l10.8,10.8h-3.6
		l-21.7-3.6l7.2,10.8l3.6,10.8L274.6,460l10.8,10.8v14.5l7.2,7.2l7.2,7.2l7.2,10.8l-10.8,7.2l-32.5,14.5l-18.1,10.8L242.1,535.9z"/>
	<path id="path1394_3_" fill="#FFFF00" stroke="#000000" stroke-width="2.8346" stroke-linecap="round" stroke-linejoin="round" d="
		M386.7,521.5l-10.8,7.2l-18.1-3.6l-10.8-7.2l-25.3,21.7l-10.8,3.6h-7.2l-7.2-25.3l10.8-7.2l-7.2-10.8l-7.2-7.2l-7.2-7.2v-14.5
		L274.6,460l10.8-10.8l-3.6-10.8l-7.2-10.8l21.7,3.6h3.6l18.1,7.2h7.2l7.2,3.6l-3.6,7.2l7.2,14.5l14.5,10.8l3.6,21.7l18.1,18.1
		l10.8-10.8v10.8L386.7,521.5z"/>
	<path id="path1446_3_" fill="#FFFF00" stroke="#000000" stroke-width="2.8346" stroke-linecap="round" stroke-linejoin="round" d="
		M278.2,604.6l3.6-3.6l-36.1-57.8l18.1-10.8l32.5-14.5l7.2,25.3h7.2l10.8-3.6l25.3-21.7l10.8,7.2l18.1,3.6l7.2,14.5l-7.2,21.7
		l3.6,14.5l-10.8,7.2l-10.8,7.2L278.2,604.6z"/>
	<path id="path1452_3_" fill="#FFFF00" stroke="#000000" stroke-width="2.8346" stroke-linecap="round" stroke-linejoin="round" d="
		M379.4,579.3l-3.6-14.5l7.2-21.7l-7.2-14.5l10.8-7.2l18.1,10.8l10.8-7.2l14.5,14.5l7.2,21.7l7.2,7.2l-10.8,7.2h-10.8l-28.9,3.6
		L379.4,579.3L379.4,579.3z"/>
	<path id="path1458_3_" fill="#FFFF00" stroke="#000000" stroke-width="2.8346" stroke-linecap="round" stroke-linejoin="round" d="
		M531.2,579.3l-7.2,14.5l-14.5,14.5l-7.2,3.6L477,626.3l-18.1-36.1v-21.7l7.2-18.1l3.6-14.5h25.3l18.1,7.2l3.6,18.1l10.8,7.2
		L531.2,579.3z"/>
	<path id="path1472_3_" fill="#FFFF00" stroke="#000000" stroke-width="2.8346" stroke-linecap="round" stroke-linejoin="round" d="
		M368.6,633.5h-7.2l-7.2,3.6v3.6l-7.2,3.6L314.4,666h-21.7l-32.5-7.2l-7.2-10.8l14.5-21.7l-3.6-3.6l7.2-14.5l7.2-3.6l79.5-10.8
		l10.8-7.2l10.8-7.2h14.5l28.9-3.6h10.8l10.8-7.2l10.8,10.8l-10.8,10.8L422.8,601l-21.7,25.3h-21.7l-10.8,3.6L368.6,633.5
		L368.6,633.5z"/>
	<path id="path1476_3_" fill="#FFFF00" stroke="#000000" stroke-width="2.8346" stroke-linecap="round" stroke-linejoin="round" d="
		M487.9,651.6L477,626.3l25.3-14.5l7.2-3.6l14.5-14.5l7.2-14.5l18.1-7.2l36.1,3.6l-3.6,10.8l-3.6,7.2v3.6h-3.6v21.7l-7.2,3.6
		l7.2,18.1l-3.6,3.6h-7.2l-7.2,7.2l-10.8,7.2l-14.5,18.1l3.6,7.2l-28.9,21.7V695l-7.2-14.5L487.9,651.6z"/>
	<path id="path1478_3_" fill="#FFFF00" stroke="#000000" stroke-width="2.8346" stroke-linecap="round" stroke-linejoin="round" d="
		M487.9,651.6l-21.7,7.2h-18.1l-7.2-7.2l-3.6-3.6v-7.2h-10.8l-14.5-3.6h-36.1l-7.2-3.6v-3.6l10.8-3.6h21.7l21.7-25.3l21.7-10.8
		l10.8-10.8l3.6,10.8l18.1,36.1L487.9,651.6z"/>
	<path id="path1492_3_" fill="#FFFF00" stroke="#000000" stroke-width="2.8346" stroke-linecap="round" stroke-linejoin="round" d="
		M451.7,666.1l-14.5,14.5l-10.8-7.2l-25.3-21.7l-14.5,7.2l-7.2,7.2h-7.2l-3.6-7.2l-10.8,7.2v-3.6l7.2-7.2l-3.6-10.8l-7.2-3.6v-3.6
		l7.2-3.6h7.2l7.2,3.6H412l14.5,3.6h10.8v7.2l3.6,3.6l7.2,7.2L451.7,666.1z"/>
	<path id="path1494_3_" fill="#FFFF00" stroke="#000000" stroke-width="2.8346" stroke-linecap="round" stroke-linejoin="round" d="
		M516.8,720.3l-10.8-14.5l28.9-21.7l-3.6-7.2l14.5-18.1l10.8-7.2l7.2-7.2h7.2v3.6l3.6,7.2l3.6-7.2l10.8-7.2l10.8-7.2l3.6,7.2
		l-7.2,3.6v7.2l10.8-10.8l7.2,3.6v3.6l-14.5,7.2V666l10.8,7.2v3.6l-21.7,10.8l-10.8,10.8l-3.6,7.2v14.5l-10.8,10.8l-32.5,21.7
		l-10.8-21.7L516.8,720.3z"/>
	<path id="path1498_3_" fill="#FFFF00" stroke="#000000" stroke-width="2.8346" stroke-linecap="round" stroke-linejoin="round" d="
		M451.7,738.3l-14.5,7.2L426.4,760h-28.9l-14.5-3.6l-7.2-10.8L365,691.3l-21.7-10.8l-7.2,7.2l-3.6,3.6l-7.2,10.8H318l-21.7-3.6h-47
		h-3.6l-3.6-18.1l3.6-14.5l14.5-7.2l32.5,7.2h21.7l32.5-21.7l7.2-3.6l7.2,3.6l3.6,10.8l-7.2,7.2v3.6l10.8-7.2l3.6,7.2h7.2l7.2-7.2
		l14.5-7.2l25.3,21.7l10.8,7.2l14.5-14.5l3.6,3.6l3.6,10.8l-18.1,21.7l-7.2,14.5l-3.6,10.8v7.2l14.5,3.6L451.7,738.3L451.7,738.3z"
		/>
	<path id="path1506_3_" fill="#FFFF00" stroke="#000000" stroke-width="2.8346" stroke-linecap="round" stroke-linejoin="round" d="
		M451.7,738.3h-7.2l-14.5-3.6v-7.2l3.6-10.8l7.2-14.5l18.1-21.7l-3.6-10.8l-3.6-3.6l-3.6-7.2h18.1l21.7-7.2l10.8,28.9l7.2,14.5v10.8
		l10.8,14.5l-25.3,10.8l-18.1,3.6l-7.2,10.8L451.7,738.3z"/>
	<path id="path1510_3_" fill="#FFFF00" stroke="#000000" stroke-width="2.8346" stroke-linecap="round" stroke-linejoin="round" d="
		M607.1,745.6l-14.5-10.8l-14.5-3.6l-7.2,3.6l-7.2-3.6l10.8-10.8v-14.5l3.6-7.2l10.8-10.8l21.7-10.8v-3.6l10.8-14.5h28.9l3.6,10.8
		l3.6,10.8L646.9,695l-25.3,14.5l-7.2,25.3L607.1,745.6z"/>
	<path id="path1514_3_" fill="#FFFF00" stroke="#000000" stroke-width="2.8346" stroke-linecap="round" stroke-linejoin="round" d="
		M383.1,756.4l-10.8,10.8v25.3l-7.2,7.2l-25.3-3.6l-32.5-7.2h-14.5l-10.8-3.6l-14.5-18.1l-3.6-21.7l-21.7-10.8l-10.8-10.8l-3.6-14.5
		l18.1-10.8h3.6h47l21.7,3.6h7.2l7.2-10.8l3.6-3.6l7.2-7.2l21.7,10.8l10.8,54.2L383.1,756.4z"/>
	<path id="path1520_3_" fill="#FFFF00" stroke="#000000" stroke-width="2.8346" stroke-linecap="round" stroke-linejoin="round" d="
		M657.7,731.1l-7.2,25.3l-10.8,3.6l-10.8-3.6l-3.6,3.6H618l-3.6-7.2l-7.2-7.2l7.2-10.8l7.2-25.3l25.3-14.5l7.2,18.1v10.8
		L657.7,731.1z"/>
	<path id="path1532_3_" fill="#FFFF00" stroke="#000000" stroke-width="2.8346" stroke-linecap="round" stroke-linejoin="round" d="
		M466.2,745.6l7.2-10.8l18.1-3.6l25.3-10.8l3.6,10.8l10.8,21.7l25.3,21.7h-28.9l-18.1,10.8l-3.6-7.2l-7.2,10.8l-7.2-3.6h-25.3h-3.6
		l3.6-18.1l7.2-10.8L466.2,745.6z"/>
	<path id="path1540_3_" fill="#FFFF00" stroke="#000000" stroke-width="2.8346" stroke-linecap="round" stroke-linejoin="round" d="
		M531.2,752.8l32.5-21.7l7.2,3.6l7.2-3.6l14.5,3.6l14.5,10.8l7.2,7.2l-32.5,14.5l-7.2,3.6v7.2l-7.2,7.2l7.2,7.2L560.1,807l-7.2-7.2
		l-3.6-10.8l-7.2,10.8l-7.2-14.5l21.7-7.2v-3.6L531.2,752.8z"/>
	<path id="path1542_3_" fill="#FFFF00" stroke="#000000" stroke-width="2.8346" stroke-linecap="round" stroke-linejoin="round" d="
		M383.1,756.4l14.5,3.6h28.9l10.8-14.5l14.5-7.2l14.5,7.2l7.2,10.8l-7.2,10.8l-3.6,18.1l-7.2,3.6l-10.8,25.3l-28.9,7.2l-21.7,18.1
		L365,828.7v-28.9l7.2-7.2v-25.3L383.1,756.4z"/>
	<path id="path1552_3_" fill="#FFFF00" stroke="#000000" stroke-width="2.8346" stroke-linecap="round" stroke-linejoin="round" d="
		M625.2,760l7.2,10.8l10.8,10.8l7.2,14.5l-21.7,14.5l10.8,10.8l-3.6,3.6l-21.7-14.5l-10.8-3.6l-3.6,7.2h-7.2l-32.5-7.2l14.5-14.5
		l-7.2-7.2l7.2-7.2v-7.2l7.2-3.6l32.5-14.5l3.6,7.2H625.2z"/>
	<path id="path1558_3_" fill="#FFFF00" stroke="#000000" stroke-width="2.8346" stroke-linecap="round" stroke-linejoin="round" d="
		M487.9,828.7L477,810.6l-10.8-21.7v-3.6h25.3l7.2,3.6l7.2-10.8l3.6,7.2l18.1-10.8h28.9v3.6l-21.7,7.2l7.2,14.5l7.2-10.8l3.6,10.8
		l7.2,7.2l32.5,7.2l3.6,10.8l3.6,3.6l7.2-7.2l3.6,3.6l-7.2,10.8L589.1,854l10.8,10.8l-3.6,10.8l-10.8,7.2l3.6,18.1l-14.5,7.2v7.2
		H571l10.8,28.9l10.8,10.8v3.6l-18.1-14.5l-10.8-14.5l-7.2-18.1l-10.8-14.5v-7.2l-47-54.2L487.9,828.7z"/>
	<path id="path1564_3_" fill="#FFFF00" stroke="#000000" stroke-width="2.8346" stroke-linecap="round" stroke-linejoin="round" d="
		M393.9,839.5l21.7-18.1l28.9-7.2l10.8-25.3l7.2-3.6h3.6v3.6l10.8,21.7l10.8,18.1l-7.2,18.1l-18.1,18.1l-14.5,7.2l-3.6,14.5h-7.2
		l-28.9-14.5l-7.2-7.2l-10.8,3.6v-3.6h-3.6l7.2-7.2v-7.2L393.9,839.5L393.9,839.5z"/>
	<path id="path1566_3_" fill="#FFFF00" stroke="#000000" stroke-width="2.8346" stroke-linecap="round" stroke-linejoin="round" d="
		M314.4,944.3l-14.5,18.1l-7.2-3.6l-7.2,10.8l-25.3-7.2h-3.6v7.2h-21.7h-3.6l-3.6-3.6l7.2-32.5L195.1,919l-7.2-25.3l3.6-18.1
		l-3.6-3.6h3.6l10.8-14.5l7.2-18.1l21.7-14.5v-10.8h18.1l18.1-14.5l14.5-14.5l10.8,3.6h14.5l32.5,7.2l25.3,3.6v28.9l28.9,10.8v10.8
		v7.2l-7.2,7.2L365,879.3l-25.3,36.1l-3.6,18.1L314.4,944.3z"/>
	<path id="path1582_3_" fill="#FFFF00" stroke="#000000" stroke-width="2.8346" stroke-linecap="round" stroke-linejoin="round" d="
		M549.3,994.9l-14.5-14.5l-21.7-25.3l-3.6-14.5l-7.2-21.7l-21.7-14.5l-10.8-10.8l-25.3-7.2l3.6-14.5l14.5-7.2l18.1-18.1l7.2-18.1
		l10.8,7.2l47,54.2v7.2l10.8,14.5l7.2,18.1l10.8,14.5l18.1,14.5l7.2,21.7L549.3,994.9z"/>
	<path id="path1594_3_" fill="#FFFF00" stroke="#000000" stroke-width="2.8346" stroke-linecap="round" stroke-linejoin="round" d="
		M444.5,886.5l25.3,7.2l10.8,10.8l21.7,14.5l7.2,21.7l3.6,14.5l21.7,25.3l14.5,14.5l-39.8,7.2l-39.8,7.2l-25.3-65.1l-21.7-14.5
		l-10.8,7.2l-50.6,32.5l-28.9-21.7l-3.6-7.2l-14.5,3.6l21.7-10.8l3.6-18.1l25.3-36.1l21.7-14.5h3.6v3.6l10.8-3.6l7.2,7.2l28.9,14.5
		L444.5,886.5L444.5,886.5z"/>
	<path id="path1620_3_" fill="#FFFF00" stroke="#000000" stroke-width="2.8346" stroke-linecap="round" stroke-linejoin="round" d="
		M361.4,969.6l50.6-32.5l10.8-7.2l21.7,14.5l25.3,65.1H365l-10.8-21.7v-10.8L361.4,969.6z"/>
	<path id="path1886_3_" fill="#FFFF00" stroke="#000000" stroke-width="2.8346" stroke-linecap="round" stroke-linejoin="round" d="
		M592.7,958.8v-3.6l-10.8-10.8L571,915.4h3.6v-7.2l14.5-7.2l-3.6-18.1l10.8-7.2l3.6-10.8L589.1,854l14.5-18.1l7.2-10.8l-3.6-3.6
		l-7.2,7.2l-3.6-3.6l-3.6-10.8h7.2l3.6-7.2l10.8,3.6l21.7,14.5l14.5,10.8l18.1,21.7l32.5,14.5l32.5,3.6v3.6v3.6l7.2,7.2h-3.6
		l-7.2-7.2l-3.6,7.2l-10.8,21.7l7.2,3.6l-7.2,7.2h-3.6h-3.6l3.6,3.6l3.6,7.2l-3.6-3.6h-7.2h-3.6l-10.8,3.6l-7.2,10.8l-28.9,14.5
		l-54.2,21.7L592.7,958.8z"/>
</g>
</svg>
